JEAN MICHEL JARRE - WATER FOR LIFE
mkv release by enola [TNTVillage.scambioetico]

"Water for Life" was a concert given by French electronic musician Jean Michel Jarre on the night of December 16, 2006 amidst the dunes of the Sahara desert at Merzouga, Morocco. The concert was held under the auspice of UNESCO as 2006 had been designated the International Year of Deserts and Desertification by the United Nations General Assembly.

The free 2h25m concert, sponsored by the Kingdom of Morocco, was attended by an estimated 10-15,000 spectators. It was filmed in high-definition TV and broadcast live by the public Moroccan TV station (channels RTM1 and TVM International) and by Almaghribya TV. A one-hour edit was produced for sale to TV stations. 
http://en.wikipedia.org/wiki/Water_for_Life


-Notes:

The video is a re-encoded version of the original avi.
Firstly, I have squeezed the file to fit in a DVD5, trying to keep the high quality of the original one. See a example here: 
http://pic.leech.it/gallery.php?id=4U9od2IzPA

So, I have added a index chapter with the tracklist retrieved from wikipedia.
At last, I have making a simple subtitle track with the titles of the songs.
Enjoy it!


-Tracklist:

   1. Intro Saturée
   2. Suite for Flute
   3. Oxygène 2
   4. Miss Moon
   5. Oxygène 7
   6. Space of Freedom (March 23)
   7. Chronologie 6
   8. Millions of Stars
   9. Oxygène 4
  10. Education (Révolution, Révolution)
  11. Gagarin (Hey Gagarin)
  12. Light my Sky
  13. Oxygène 12
  14. Chronologie 2
  15. C'est la Vie
  16. Theremin Memories
  17. Souvenir de Chine
  18. Unesco Theme (Eldorado)
  19. Rendez-Vous 4
  20. Rendez-Vous 2


-Info file:

General
Complete name                    : G:AZUREUSJean Michel Jarre_Water For Life_(Maroc 2006).mkv
Format                           : Matroska
File size                        : 4.38 GiB
Duration                         : 2h 13mn
Overall bit rate                 : 4 684 Kbps
Movie name                       : Jean Michel Jarre - Water for Life (Merzouga, Maroc 2006)
Encoded date                     : UTC 2009-07-13 03:23:18
Writing application              : mkvmerge v2.5.2 ('Stranger in your Soul') built on Feb 28 2009 18:58:17
Writing library                  : libebml v0.7.7 + libmatroska v0.8.1
Cover                            : Yes / Yes

Video
ID                               : 1
Format                           : AVC
Format/Info                      : Advanced Video Codec
Format profile                   : Main@L3.1
Format settings, CABAC           : No
Format settings, ReFrames        : 5 frames
Muxing mode                      : Container profile=Unknown@3.1
Codec ID                         : V_MPEG4/ISO/AVC
Duration                         : 2h 13mn
Bit rate                         : 4 335 Kbps
Nominal bit rate                 : 4 425 Kbps
Width                            : 1 280 pixels
Height                           : 720 pixels
Display aspect ratio             : 16/9
Frame rate                       : 25.000 fps
Resolution                       : 24 bits
Colorimetry                      : 4:2:0
Scan type                        : Progressive
Bits/(Pixel*Frame)               : 0.188
Stream size                      : 4.05 GiB (93%)
Writing library                  : x264 core 68 r1181M 49bf767
Encoding settings                : cabac=0 / ref=5 / deblock=1:0:0 / analyse=0x1:0x131 / me=umh / subme=7 / psy_rd=1.0:0.0 / mixed_ref=0 / me_range=16 / 

chroma_me=1 / trellis=0 / 8x8dct=0 / cqm=0 / deadzone=21,11 / chroma_qp_offset=-2 / threads=3 / nr=0 / decimate=1 / mbaff=0 / bframes=3 / b_pyramid=0 / 

b_adapt=1 / b_bias=0 / direct=1 / wpredb=1 / keyint=250 / keyint_min=25 / scenecut=40 / rc=2pass / bitrate=4425 / ratetol=1.0 / qcomp=0.60 / qpmin=10 / 

qpmax=51 / qpstep=4 / cplxblur=20.0 / qblur=0.5 / ip_ratio=1.40 / pb_ratio=1.30 / aq=1:1.00

Audio
ID                               : 2
Format                           : AC-3
Format/Info                      : Audio Coding 3
Codec ID                         : A_AC3
Duration                         : 2h 13mn
Bit rate mode                    : Constant
Bit rate                         : 256 Kbps
Channel(s)                       : 2 channels
Channel positions                : L R
Sampling rate                    : 48.0 KHz
Stream size                      : 245 MiB (5%)

Text
ID                               : 3
Format                           : ASS
Codec ID                         : S_TEXT/ASS
Codec ID/Info                    : Advanced Sub Station Alpha

Menu
00:00:00.000                     : en:[1] Intro Saturée
00:03:52.000                     : en:-
00:04:50.360                     : en:[2] Suite for Flute
00:08:45.400                     : en:[3] Oxygène 2
00:14:13.080                     : en:-
00:14:22.980                     : en:[4] Miss Moon
00:20:24.320                     : en:-
00:21:59.980                     : en:[5] Oxygène 7
00:26:43.240                     : en:-
00:29:44.560                     : en:[6] Space of Freedom [March 23]
00:35:01.600                     : en:[7] Chronologie 6
00:40:57.840                     : en:-
00:42:38.920                     : en:[8] Millions of Stars
00:48:33.600                     : en:-
00:49:03.980                     : en:[9] Oxygène 4
00:53:01.560                     : en:-
00:56:06.960                     : en:-
00:58:15.980                     : en:[10] Education [Révolution, Révolution]
01:06:24.880                     : en:-
01:07:28.980                     : en:[11] Gagarin [Hey Gagarin]
01:12:19.000                     : en:[12] Light my Sky
01:16:47.040                     : en:-
01:17:24.980                     : en:[13] Oxygène 12
01:23:10.840                     : en:-
01:23:31.980                     : en:[14] Chronologie 2
01:30:12.480                     : en:-
01:31:11.980                     : en:[15] C'est la Vie
01:39:43.320                     : en:-
01:40:23.980                     : en:[16] Theremin Memories
01:43:32.240                     : en:[17] Souvenir de Chine
01:47:49.240                     : en:-
01:48:58.980                     : en:[18] Unesco Theme [Eldorado]
01:53:51.640                     : en:-
01:54:19.380                     : en:[19] Rendez-Vous 4
02:00:42.040                     : en:-
02:02:56.980                     : en:[20] Rendez-Vous 2
02:12:06.640                     : en:-